<?xml version="1.0" standalone="no"?>
<!DOCTYPE svg PUBLIC "-//W3C//DTD SVG 20010904//EN"
 "http://www.w3.org/TR/2001/REC-SVG-20010904/DTD/svg10.dtd">
<svg version="1.0" xmlns="http://www.w3.org/2000/svg"
 width="600.000000pt" height="600.000000pt" viewBox="0 0 600.000000 600.000000"
 preserveAspectRatio="xMidYMid meet">
<metadata>
Created by potrace 1.11, written by Peter Selinger 2001-2013
</metadata>
<g transform="translate(0.000000,600.000000) scale(0.100000,-0.100000)"
fill="#000000" stroke="none">
<path d="M2818 5996 c-1 -2 -41 -6 -88 -10 -47 -3 -96 -8 -110 -10 -14 -2 -47
-8 -75 -12 -27 -4 -57 -9 -65 -10 -8 -2 -33 -5 -55 -8 -70 -10 -326 -83 -458
-131 -656 -237 -1201 -697 -1570 -1323 -35 -60 -162 -319 -172 -352 -4 -14
-11 -29 -15 -35 -14 -18 -98 -287 -124 -395 -37 -155 -60 -294 -74 -440 -9
-102 -9 -425 1 -535 87 -1006 684 -1907 1583 -2386 32 -17 119 -58 193 -91 75
-32 145 -63 156 -68 81 -36 316 -101 490 -134 235 -45 337 -54 620 -50 121 1
229 5 240 7 11 3 49 8 85 12 77 9 98 12 125 18 11 3 42 8 69 11 27 4 52 9 56
11 4 2 18 6 32 9 55 10 222 58 334 97 259 89 491 210 764 399 180 124 481 417
612 595 4 6 18 24 31 40 132 169 287 446 380 675 51 125 123 355 143 455 13
67 44 236 48 270 27 203 28 618 2 775 -3 14 -7 43 -10 65 -11 82 -25 153 -46
241 -12 49 -23 98 -26 108 -2 11 -18 63 -35 115 -157 476 -388 857 -729 1200
-134 134 -154 152 -275 247 -238 187 -511 342 -775 442 -106 40 -183 66 -187
64 -2 -1 -22 6 -45 14 -46 16 -216 58 -283 70 -22 4 -49 8 -60 10 -11 3 -54 9
-95 15 -41 5 -88 12 -105 15 -33 6 -481 15 -487 10z m1217 -1123 c53 -39 55
-55 55 -405 1 -272 3 -326 16 -343 12 -16 29 -20 92 -23 125 -4 117 -31 120
365 2 321 3 338 23 370 12 18 33 40 48 48 33 17 92 11 131 -12 55 -32 58 -52
59 -388 0 -260 3 -311 16 -331 33 -51 114 -17 161 68 l28 53 2 260 c1 288 4
302 63 342 61 41 143 16 181 -54 15 -28 17 -62 15 -265 -1 -128 -6 -251 -10
-273 -27 -148 -138 -297 -278 -375 -120 -66 -149 -69 -612 -70 -226 0 -423 -3
-438 -6 -82 -14 -165 -80 -208 -163 -19 -37 -24 -65 -27 -162 l-4 -117 598 -1
c330 0 615 0 635 0 l36 -1 -2 -64 c-7 -173 -105 -319 -265 -395 -72 -35 -79
-36 -185 -35 -128 0 -186 18 -273 84 -29 22 -53 40 -55 40 -1 0 -2 -381 -3
-848 l-1 -847 -26 -99 c-47 -175 -127 -317 -250 -439 -118 -119 -237 -191
-397 -242 -104 -32 -156 -39 -285 -39 -437 1 -805 288 -921 719 l-27 100 -1
842 c0 464 -2 843 -3 843 -2 0 -26 -18 -55 -40 -80 -61 -178 -92 -283 -91 -43
0 -57 3 -121 20 -182 49 -324 245 -319 441 l1 45 419 2 c231 1 516 3 633 4
l212 2 0 93 c0 71 -5 107 -21 151 -30 79 -99 144 -182 171 -58 19 -88 20 -475
21 -388 0 -418 1 -490 21 -197 54 -349 215 -398 421 -11 43 -11 481 -1 521 19
76 103 112 177 76 70 -35 73 -49 72 -323 0 -282 8 -328 68 -386 21 -20 48 -40
60 -44 25 -8 66 10 74 32 3 7 6 154 6 326 1 290 3 316 20 345 38 62 104 82
168 51 70 -35 72 -46 72 -413 0 -371 -1 -364 80 -367 86 -3 110 1 130 21 19
19 20 33 20 346 0 315 1 328 22 365 48 86 165 84 218 -4 19 -30 20 -53 20
-358 0 -381 -4 -365 95 -373 205 -18 370 -124 459 -296 51 -100 64 -159 65
-302 l1 -96 210 0 210 0 1 107 c1 121 2 133 29 221 64 213 282 374 513 379 23
1 45 9 57 21 19 19 20 33 20 344 0 333 3 364 41 399 43 40 116 45 164 10z"/>
<path d="M2734 2862 c-41 -6 -85 -54 -91 -100 -18 -138 170 -193 224 -65 37
90 -35 179 -133 165z"/>
<path d="M3190 2827 c-32 -16 -70 -73 -70 -104 0 -121 170 -168 225 -63 53
103 -53 218 -155 167z"/>
<path d="M2950 1654 c-88 -14 -179 -62 -238 -125 -41 -44 -80 -126 -93 -196
-19 -99 4 -198 66 -288 42 -61 82 -93 160 -131 53 -25 71 -28 155 -29 86 0
101 3 160 31 274 130 306 509 55 672 -33 22 -77 45 -97 51 -40 13 -129 21
-168 15z"/>
</g>
</svg>
